<svg width="35" height="35" viewBox="0 0 35 35" fill="none" xmlns="http://www.w3.org/2000/svg">
<path fill-rule="evenodd" clip-rule="evenodd" d="M17.5 32.8125C25.9569 32.8125 32.8125 25.9569 32.8125 17.5C32.8125 9.04314 25.9569 2.1875 17.5 2.1875C9.04314 2.1875 2.1875 9.04314 2.1875 17.5C2.1875 25.9569 9.04314 32.8125 17.5 32.8125ZM17.5 35C27.165 35 35 27.165 35 17.5C35 7.83502 27.165 0 17.5 0C7.83502 0 0 7.83502 0 17.5C0 27.165 7.83502 35 17.5 35Z" fill="#415FFD"/>
<path d="M14.2969 14.3359C15.1823 13.4505 16.25 13.0078 17.5 13.0078C18.75 13.0078 19.8047 13.4505 20.6641 14.3359C21.5495 15.1953 21.9922 16.25 21.9922 17.5C21.9922 18.75 21.5495 19.8177 20.6641 20.7031C19.8047 21.5625 18.75 21.9922 17.5 21.9922C16.25 21.9922 15.1823 21.5625 14.2969 20.7031C13.4375 19.8177 13.0078 18.75 13.0078 17.5C13.0078 16.25 13.4375 15.1953 14.2969 14.3359ZM15.4297 19.5703C16.0026 20.1432 16.6927 20.4297 17.5 20.4297C18.3073 20.4297 18.9974 20.1432 19.5703 19.5703C20.1432 18.9974 20.4297 18.3073 20.4297 17.5C20.4297 16.6927 20.1432 16.0026 19.5703 15.4297C18.9974 14.8568 18.3073 14.5703 17.5 14.5703C16.6927 14.5703 16.0026 14.8568 15.4297 15.4297C14.8568 16.0026 14.5703 16.6927 14.5703 17.5C14.5703 18.3073 14.8568 18.9974 15.4297 19.5703ZM22.8906 12.1094C23.099 12.2917 23.2031 12.526 23.2031 12.8125C23.2031 13.099 23.099 13.3464 22.8906 13.5547C22.7083 13.763 22.474 13.8672 22.1875 13.8672C21.901 13.8672 21.6536 13.763 21.4453 13.5547C21.237 13.3464 21.1328 13.099 21.1328 12.8125C21.1328 12.526 21.237 12.2917 21.4453 12.1094C21.6536 11.901 21.901 11.7969 22.1875 11.7969C22.474 11.7969 22.7083 11.901 22.8906 12.1094ZM26.2109 13.9062C26.237 14.6094 26.25 15.8073 26.25 17.5C26.25 19.1927 26.237 20.3906 26.2109 21.0938C26.1328 22.6823 25.651 23.9193 24.7656 24.8047C23.9063 25.6641 22.6823 26.1198 21.0938 26.1719C20.3906 26.224 19.1927 26.25 17.5 26.25C15.8073 26.25 14.6094 26.224 13.9062 26.1719C12.3177 26.0938 11.0938 25.625 10.2344 24.7656C9.89583 24.4531 9.6224 24.0885 9.41406 23.6719C9.20573 23.2552 9.04948 22.8516 8.94531 22.4609C8.86719 22.0703 8.82812 21.6146 8.82812 21.0938C8.77604 20.3906 8.75 19.1927 8.75 17.5C8.75 15.8073 8.77604 14.5964 8.82812 13.8672C8.90625 12.3047 9.375 11.0938 10.2344 10.2344C11.0938 9.34896 12.3177 8.86719 13.9062 8.78906C14.6094 8.76302 15.8073 8.75 17.5 8.75C19.1927 8.75 20.3906 8.76302 21.0938 8.78906C22.6823 8.86719 23.9063 9.34896 24.7656 10.2344C25.651 11.0938 26.1328 12.3177 26.2109 13.9062ZM24.3359 22.6563C24.4141 22.4479 24.4792 22.1875 24.5312 21.875C24.5833 21.5365 24.6224 21.1458 24.6484 20.7031C24.6745 20.2344 24.6875 19.8568 24.6875 19.5703C24.6875 19.2839 24.6875 18.8802 24.6875 18.3594C24.6875 17.8385 24.6875 17.5521 24.6875 17.5C24.6875 17.4219 24.6875 17.1354 24.6875 16.6406C24.6875 16.1198 24.6875 15.7161 24.6875 15.4297C24.6875 15.1432 24.6745 14.7786 24.6484 14.3359C24.6224 13.8672 24.5833 13.4766 24.5312 13.1641C24.4792 12.8255 24.4141 12.5521 24.3359 12.3438C24.0234 11.5365 23.4635 10.9766 22.6563 10.6641C22.4479 10.5859 22.1745 10.5208 21.8359 10.4688C21.5234 10.4167 21.1328 10.3776 20.6641 10.3516C20.2214 10.3255 19.8568 10.3125 19.5703 10.3125C19.3099 10.3125 18.9062 10.3125 18.3594 10.3125C17.8385 10.3125 17.5521 10.3125 17.5 10.3125C17.4479 10.3125 17.1615 10.3125 16.6406 10.3125C16.1198 10.3125 15.7161 10.3125 15.4297 10.3125C15.1432 10.3125 14.7656 10.3255 14.2969 10.3516C13.8542 10.3776 13.4635 10.4167 13.125 10.4688C12.8125 10.5208 12.5521 10.5859 12.3438 10.6641C11.5365 10.9766 10.9766 11.5365 10.6641 12.3438C10.5859 12.5521 10.5208 12.8255 10.4688 13.1641C10.4167 13.4766 10.3776 13.8672 10.3516 14.3359C10.3255 14.7786 10.3125 15.1432 10.3125 15.4297C10.3125 15.6901 10.3125 16.0938 10.3125 16.6406C10.3125 17.1615 10.3125 17.4479 10.3125 17.5C10.3125 17.6042 10.3125 17.8516 10.3125 18.2422C10.3125 18.6068 10.3125 18.9193 10.3125 19.1797C10.3125 19.4141 10.3125 19.7266 10.3125 20.1172C10.3385 20.5078 10.3646 20.8464 10.3906 21.1328C10.4167 21.3932 10.4557 21.6667 10.5078 21.9531C10.5599 22.2396 10.612 22.474 10.6641 22.6563C11.0026 23.4635 11.5625 24.0234 12.3438 24.3359C12.5521 24.4141 12.8125 24.4792 13.125 24.5312C13.4635 24.5833 13.8542 24.6224 14.2969 24.6484C14.7656 24.6745 15.1302 24.6875 15.3906 24.6875C15.6771 24.6875 16.0807 24.6875 16.6016 24.6875C17.1484 24.6875 17.4479 24.6875 17.5 24.6875C17.5781 24.6875 17.8646 24.6875 18.3594 24.6875C18.8802 24.6875 19.2839 24.6875 19.5703 24.6875C19.8568 24.6875 20.2214 24.6745 20.6641 24.6484C21.1328 24.6224 21.5234 24.5833 21.8359 24.5312C22.1745 24.4792 22.4479 24.4141 22.6563 24.3359C23.4635 23.9974 24.0234 23.4375 24.3359 22.6563Z" fill="#415FFD"/>
</svg>
