<svg width="35" height="35" viewBox="0 0 35 35" fill="none" xmlns="http://www.w3.org/2000/svg">
<path fill-rule="evenodd" clip-rule="evenodd" d="M17.5 32.8125C25.9569 32.8125 32.8125 25.9569 32.8125 17.5C32.8125 9.04314 25.9569 2.1875 17.5 2.1875C9.04314 2.1875 2.1875 9.04314 2.1875 17.5C2.1875 25.9569 9.04314 32.8125 17.5 32.8125ZM17.5 35C27.165 35 35 27.165 35 17.5C35 7.83502 27.165 0 17.5 0C7.83502 0 0 7.83502 0 17.5C0 27.165 7.83502 35 17.5 35Z" fill="#415FFD"/>
<path d="M26.25 17.2746C26.25 21.9827 22.4041 25.7993 17.6591 25.7993C16.1527 25.7993 14.7375 25.4143 13.5063 24.7386L8.75 26.25L10.3007 21.6763C9.51845 20.3918 9.06792 18.8852 9.06792 17.2746C9.06792 12.5666 12.9142 8.75 17.6591 8.75C22.4045 8.75 26.25 12.5666 26.25 17.2746ZM17.6591 10.1076C13.6761 10.1076 10.4362 13.3228 10.4362 17.2746C10.4362 18.8428 10.9474 20.2951 11.8121 21.4766L10.9097 24.1383L13.6854 23.2561C14.8258 24.0049 16.192 24.4417 17.6593 24.4417C21.6417 24.4417 24.8821 21.2269 24.8821 17.275C24.8821 13.3231 21.6419 10.1076 17.6591 10.1076ZM21.9973 19.2379C21.9442 19.151 21.804 19.0985 21.5936 18.9941C21.3829 18.8897 20.3472 18.3839 20.1548 18.3145C19.9617 18.2449 19.8209 18.2099 19.6807 18.4189C19.5405 18.6282 19.1368 19.0985 19.0138 19.2379C18.8909 19.3778 18.7682 19.3953 18.5574 19.2906C18.347 19.1862 17.6686 18.9653 16.8642 18.2537C16.2383 17.6999 15.8155 17.0162 15.6926 16.8068C15.5699 16.5978 15.6798 16.4848 15.785 16.3808C15.8799 16.2871 15.9958 16.1367 16.101 16.0148C16.2066 15.8927 16.2416 15.8058 16.3114 15.6662C16.3819 15.5268 16.3468 15.4049 16.2939 15.3001C16.2414 15.1956 15.8198 14.1674 15.6444 13.749C15.469 13.3309 15.2938 13.4005 15.1708 13.4005C15.0481 13.4005 14.9075 13.383 14.7671 13.383C14.6267 13.383 14.3984 13.4353 14.2053 13.6444C14.0124 13.8536 13.4686 14.3591 13.4686 15.3872C13.4686 16.4154 14.2228 17.4088 14.3284 17.548C14.4336 17.6873 15.7848 19.8658 17.9256 20.7025C20.0667 21.5388 20.0667 21.2598 20.4528 21.2248C20.8386 21.19 21.6984 20.7194 21.8746 20.2318C22.0496 19.7433 22.0496 19.3251 21.9973 19.2379Z" fill="#415FFD"/>
</svg>
