<svg width="35" height="35" viewBox="0 0 35 35" fill="none" xmlns="http://www.w3.org/2000/svg">
<path fill-rule="evenodd" clip-rule="evenodd" d="M17.5 32.8125C25.9569 32.8125 32.8125 25.9569 32.8125 17.5C32.8125 9.04314 25.9569 2.1875 17.5 2.1875C9.04314 2.1875 2.1875 9.04314 2.1875 17.5C2.1875 25.9569 9.04314 32.8125 17.5 32.8125ZM17.5 35C27.165 35 35 27.165 35 17.5C35 7.83502 27.165 0 17.5 0C7.83502 0 0 7.83502 0 17.5C0 27.165 7.83502 35 17.5 35Z" fill="#F61C0D"/>
<path d="M25.8974 13.6035C25.9615 13.8618 26.015 14.1846 26.0577 14.5719C26.1218 14.9593 26.1645 15.3467 26.1859 15.734C26.2073 16.0999 26.2179 16.4442 26.2179 16.767C26.2393 17.0898 26.25 17.3589 26.25 17.5741V17.8646C26.25 19.8014 26.1325 21.2325 25.8974 22.1579C25.7906 22.5238 25.5983 22.8466 25.3205 23.1264C25.0427 23.4061 24.7115 23.5998 24.3269 23.7074C23.9209 23.815 23.1517 23.9011 22.0192 23.9657C20.8868 24.0087 19.8504 24.041 18.9103 24.0625H17.5C13.8462 24.0625 11.5705 23.9441 10.6731 23.7074C9.83974 23.4707 9.31624 22.9542 9.10256 22.1579C8.99573 21.749 8.91026 21.1895 8.84615 20.4793C8.80342 19.7476 8.77137 19.1343 8.75 18.6393V17.8646C8.75 15.9493 8.86752 14.5289 9.10256 13.6035C9.2094 13.2161 9.40171 12.8826 9.67949 12.6028C9.95726 12.323 10.2885 12.1294 10.6731 12.0218C11.0791 11.9142 11.8483 11.8388 12.9808 11.7958C14.1132 11.7312 15.1496 11.6882 16.0897 11.6667H17.5C21.1538 11.6667 23.4295 11.785 24.3269 12.0218C24.7115 12.1294 25.0427 12.323 25.3205 12.6028C25.5983 12.8826 25.7906 13.2161 25.8974 13.6035ZM15.7051 20.5116L20.2885 17.8646L15.7051 15.2498V20.5116Z" fill="#F61C0D"/>
</svg>
